# Blender v2.82 (sub 7) OBJ File: 'block.blend'
# www.blender.org
mtllib block.mtl
o Cube
v 1.000000 0.202235 -1.000000
v 1.000000 -0.202235 -1.000000
v 1.000000 0.202235 1.000000
v 1.000000 -0.202235 1.000000
v -1.000000 0.202235 -1.000000
v -1.000000 -0.202235 -1.000000
v -1.000000 0.202235 1.000000
v -1.000000 -0.202235 1.000000
v 0.860537 0.281036 -0.860537
v 0.860537 0.281036 0.860537
v -0.860537 0.281036 -0.860537
v -0.860537 0.281036 0.860537
v 0.851253 -0.279574 -0.851253
v 0.851253 -0.279574 0.851253
v -0.851253 -0.279574 -0.851253
v -0.851253 -0.279574 0.851253
vt 0.860741 0.898701
vt 0.139259 0.898701
vt 0.189569 1.039264
vt 0.810431 1.039264
vt 0.860741 0.177219
vt 0.860741 0.898701
vt 0.139259 0.177219
vt 0.860741 0.177219
vt 0.139259 0.177219
vt 0.860741 0.177219
vt 0.807082 0.039264
vt 0.192918 0.039264
vt 0.860741 0.898701
vt 0.139259 0.898701
vt 0.139259 0.177219
vt 0.139259 0.898701
vt 0.810431 1.039264
vt 0.189569 1.039264
vt 0.189569 1.039264
vt 0.810431 1.039264
vt 0.192918 0.807082
vt 0.807082 0.807082
vt 0.807082 0.192918
vt 0.192918 0.192918
vt 0.192918 0.039264
vt 0.807082 0.039264
vt 0.807082 0.039264
vt 0.192918 0.039264
vn -0.4919 0.8706 0.0000
vn 0.0000 0.0000 1.0000
vn -1.0000 0.0000 0.0000
vn 0.0000 -0.8872 -0.4613
vn 1.0000 0.0000 0.0000
vn 0.0000 0.0000 -1.0000
vn 0.4919 0.8706 0.0000
vn 0.0000 0.8706 -0.4919
vn 0.0000 0.8706 0.4919
vn 0.0000 -1.0000 0.0000
vn 0.0000 -0.8872 0.4613
vn -0.4613 -0.8872 0.0000
vn 0.4613 -0.8872 0.0000
usemtl block
s off
f 5/1/1 7/2/1 12/3/1 11/4/1
f 4/5/2 3/6/2 7/2/2 8/7/2
f 8/7/3 7/2/3 5/1/3 6/8/3
f 6/9/4 2/10/4 13/11/4 15/12/4
f 2/10/5 1/13/5 3/14/5 4/15/5
f 6/9/6 5/16/6 1/13/6 2/10/6
f 3/14/7 1/13/7 9/17/7 10/18/7
f 1/13/8 5/16/8 11/19/8 9/17/8
f 7/2/9 3/6/9 10/20/9 12/3/9
f 15/21/10 13/22/10 14/23/10 16/24/10
f 4/5/11 8/7/11 16/25/11 14/26/11
f 8/7/12 6/8/12 15/27/12 16/25/12
f 2/10/13 4/15/13 14/28/13 13/11/13
o Cube.001
v 0.860537 0.281036 -0.860537
v 0.860537 0.281036 0.860537
v -0.860537 0.281036 -0.860537
v -0.860537 0.281036 0.860537
vt 0.000100 0.000100
vt 0.999900 0.000100
vt 0.999900 0.999900
vt 0.000100 0.999900
vn 0.0000 1.0000 0.0000
usemtl block_img
s off
f 17/29/14 19/30/14 20/31/14 18/32/14
