# Blender v2.82 (sub 7) OBJ File: 'car.blend'
# www.blender.org
mtllib car.mtl
o car_Cube
v -0.300000 0.838826 1.000000
v -0.300000 0.509706 1.000000
v -0.536661 1.600000 -1.000000
v -0.500000 0.400000 -1.000000
v 0.300000 0.838826 1.000000
v 0.300000 0.509706 1.000000
v 0.536661 1.600000 -1.000000
v 0.500000 0.400000 -1.000000
vt 0.375000 0.000000
vt 0.625000 0.000000
vt 0.625000 0.250000
vt 0.375000 0.250000
vt 0.375000 0.250000
vt 0.625000 0.250000
vt 0.625000 0.500000
vt 0.375000 0.500000
vt 0.625000 0.750000
vt 0.375000 0.750000
vt 0.625000 0.750000
vt 0.625000 1.000000
vt 0.375000 1.000000
vt 0.125000 0.500000
vt 0.375000 0.500000
vt 0.375000 0.750000
vt 0.125000 0.750000
vt 0.625000 0.500000
vt 0.875000 0.500000
vt 0.875000 0.750000
vn 0.0000 0.9346 0.3557
vn 0.0000 0.0000 -1.0000
vn 0.9942 -0.0238 0.1047
vn 0.0000 -0.9985 0.0548
vn -0.9942 -0.0238 0.1047
vn 0.0000 0.0000 1.0000
usemtl Material
s off
f 1/1/1 5/2/1 7/3/1 3/4/1
f 4/5/2 3/6/2 7/7/2 8/8/2
f 8/8/3 7/7/3 5/9/3 6/10/3
f 6/10/4 2/11/4 4/12/4 8/13/4
f 2/14/5 1/15/5 3/16/5 4/17/5
f 6/18/6 5/19/6 1/20/6 2/11/6
o wheel4_Cylinder
v -0.328887 0.485198 -0.535899
v -0.697055 0.485198 -0.535899
v -0.328887 0.203683 -0.548190
v -0.697055 0.203683 -0.548190
v -0.328887 0.013314 -0.755943
v -0.697055 0.013314 -0.755943
v -0.328887 0.025605 -1.037457
v -0.697055 0.025605 -1.037457
v -0.328887 0.233357 -1.227827
v -0.697055 0.233357 -1.227827
v -0.328887 0.514872 -1.215536
v -0.697055 0.514872 -1.215536
v -0.328887 0.705242 -1.007784
v -0.697055 0.705242 -1.007784
v -0.328887 0.692950 -0.726269
v -0.697055 0.692950 -0.726269
vt 1.000000 0.500000
vt 1.000000 1.000000
vt 0.875000 1.000000
vt 0.875000 0.500000
vt 0.750000 1.000000
vt 0.750000 0.500000
vt 0.625000 1.000000
vt 0.625000 0.500000
vt 0.500000 1.000000
vt 0.500000 0.500000
vt 0.375000 1.000000
vt 0.375000 0.500000
vt 0.250000 1.000000
vt 0.250000 0.500000
vt 0.419706 0.419706
vt 0.250000 0.490000
vt 0.080294 0.419706
vt 0.010000 0.250000
vt 0.080294 0.080294
vt 0.250000 0.010000
vt 0.419706 0.080294
vt 0.490000 0.250000
vt 0.125000 1.000000
vt 0.125000 0.500000
vt 0.000000 1.000000
vt 0.000000 0.500000
vt 0.750000 0.490000
vt 0.919706 0.419706
vt 0.990000 0.250000
vt 0.919706 0.080294
vt 0.750000 0.010000
vt 0.580294 0.080294
vt 0.510000 0.250000
vt 0.580294 0.419706
vn -0.0000 -0.0436 0.9990
vn 0.0000 -0.7373 0.6756
vn 0.0000 -0.9990 -0.0436
vn -0.0000 -0.6756 -0.7373
vn 0.0000 0.0436 -0.9990
vn 0.0000 0.7373 -0.6756
vn -1.0000 0.0000 -0.0000
vn 0.0000 0.9990 0.0436
vn 0.0000 0.6756 0.7373
vn 1.0000 0.0000 0.0000
usemtl Material.001
s off
f 9/21/7 10/22/7 12/23/7 11/24/7
f 11/24/8 12/23/8 14/25/8 13/26/8
f 13/26/9 14/25/9 16/27/9 15/28/9
f 15/28/10 16/27/10 18/29/10 17/30/10
f 17/30/11 18/29/11 20/31/11 19/32/11
f 19/32/12 20/31/12 22/33/12 21/34/12
f 12/35/13 10/36/13 24/37/13 22/38/13 20/39/13 18/40/13 16/41/13 14/42/13
f 21/34/14 22/33/14 24/43/14 23/44/14
f 23/44/15 24/43/15 10/45/15 9/46/15
f 9/47/16 11/48/16 13/49/16 15/50/16 17/51/16 19/52/16 21/53/16 23/54/16
o wheel2_Cylinder.001
v -0.289510 0.485198 1.162504
v -0.657677 0.485198 1.162504
v -0.289510 0.203683 1.150213
v -0.657677 0.203683 1.150213
v -0.289510 0.013314 0.942460
v -0.657677 0.013314 0.942460
v -0.289510 0.025605 0.660946
v -0.657677 0.025605 0.660946
v -0.289510 0.233357 0.470576
v -0.657677 0.233357 0.470576
v -0.289510 0.514872 0.482867
v -0.657677 0.514872 0.482867
v -0.289510 0.705242 0.690619
v -0.657677 0.705242 0.690619
v -0.289510 0.692950 0.972134
v -0.657677 0.692950 0.972134
vt 1.000000 0.500000
vt 1.000000 1.000000
vt 0.875000 1.000000
vt 0.875000 0.500000
vt 0.750000 1.000000
vt 0.750000 0.500000
vt 0.625000 1.000000
vt 0.625000 0.500000
vt 0.500000 1.000000
vt 0.500000 0.500000
vt 0.375000 1.000000
vt 0.375000 0.500000
vt 0.250000 1.000000
vt 0.250000 0.500000
vt 0.419706 0.419706
vt 0.250000 0.490000
vt 0.080294 0.419706
vt 0.010000 0.250000
vt 0.080294 0.080294
vt 0.250000 0.010000
vt 0.419706 0.080294
vt 0.490000 0.250000
vt 0.125000 1.000000
vt 0.125000 0.500000
vt 0.000000 1.000000
vt 0.000000 0.500000
vt 0.750000 0.490000
vt 0.919706 0.419706
vt 0.990000 0.250000
vt 0.919706 0.080294
vt 0.750000 0.010000
vt 0.580294 0.080294
vt 0.510000 0.250000
vt 0.580294 0.419706
vn 0.0000 -0.0436 0.9990
vn 0.0000 -0.7373 0.6756
vn 0.0000 -0.9990 -0.0436
vn -0.0000 -0.6756 -0.7373
vn -0.0000 0.0436 -0.9990
vn 0.0000 0.7373 -0.6756
vn -1.0000 -0.0000 0.0000
vn 0.0000 0.9990 0.0436
vn -0.0000 0.6756 0.7373
vn 1.0000 0.0000 0.0000
usemtl Material.001
s off
f 25/55/17 26/56/17 28/57/17 27/58/17
f 27/58/18 28/57/18 30/59/18 29/60/18
f 29/60/19 30/59/19 32/61/19 31/62/19
f 31/62/20 32/61/20 34/63/20 33/64/20
f 33/64/21 34/63/21 36/65/21 35/66/21
f 35/66/22 36/65/22 38/67/22 37/68/22
f 28/69/23 26/70/23 40/71/23 38/72/23 36/73/23 34/74/23 32/75/23 30/76/23
f 37/68/24 38/67/24 40/77/24 39/78/24
f 39/78/25 40/77/25 26/79/25 25/80/25
f 25/81/26 27/82/26 29/83/26 31/84/26 33/85/26 35/86/26 37/87/26 39/88/26
o wheel1_Cylinder.002
v 0.636447 0.485198 1.162504
v 0.268279 0.485198 1.162504
v 0.636447 0.203683 1.150213
v 0.268279 0.203683 1.150213
v 0.636447 0.013314 0.942460
v 0.268279 0.013314 0.942460
v 0.636447 0.025605 0.660946
v 0.268279 0.025605 0.660946
v 0.636447 0.233357 0.470576
v 0.268279 0.233357 0.470576
v 0.636447 0.514872 0.482867
v 0.268279 0.514872 0.482867
v 0.636447 0.705242 0.690619
v 0.268280 0.705242 0.690619
v 0.636447 0.692950 0.972134
v 0.268279 0.692950 0.972134
vt 1.000000 0.500000
vt 1.000000 1.000000
vt 0.875000 1.000000
vt 0.875000 0.500000
vt 0.750000 1.000000
vt 0.750000 0.500000
vt 0.625000 1.000000
vt 0.625000 0.500000
vt 0.500000 1.000000
vt 0.500000 0.500000
vt 0.375000 1.000000
vt 0.375000 0.500000
vt 0.250000 1.000000
vt 0.250000 0.500000
vt 0.419706 0.419706
vt 0.250000 0.490000
vt 0.080294 0.419706
vt 0.010000 0.250000
vt 0.080294 0.080294
vt 0.250000 0.010000
vt 0.419706 0.080294
vt 0.490000 0.250000
vt 0.125000 1.000000
vt 0.125000 0.500000
vt 0.000000 1.000000
vt 0.000000 0.500000
vt 0.750000 0.490000
vt 0.919706 0.419706
vt 0.990000 0.250000
vt 0.919706 0.080294
vt 0.750000 0.010000
vt 0.580294 0.080294
vt 0.510000 0.250000
vt 0.580294 0.419706
vn 0.0000 -0.0436 0.9990
vn 0.0000 -0.7373 0.6756
vn 0.0000 -0.9990 -0.0436
vn -0.0000 -0.6756 -0.7373
vn -0.0000 0.0436 -0.9990
vn 0.0000 0.7373 -0.6756
vn -1.0000 -0.0000 -0.0000
vn 0.0000 0.9990 0.0436
vn -0.0000 0.6756 0.7373
vn 1.0000 -0.0000 0.0000
usemtl Material.001
s off
f 41/89/27 42/90/27 44/91/27 43/92/27
f 43/92/28 44/91/28 46/93/28 45/94/28
f 45/94/29 46/93/29 48/95/29 47/96/29
f 47/96/30 48/95/30 50/97/30 49/98/30
f 49/98/31 50/97/31 52/99/31 51/100/31
f 51/100/32 52/99/32 54/101/32 53/102/32
f 44/103/33 42/104/33 56/105/33 54/106/33 52/107/33 50/108/33 48/109/33 46/110/33
f 53/102/34 54/101/34 56/111/34 55/112/34
f 55/112/35 56/111/35 42/113/35 41/114/35
f 41/115/36 43/116/36 45/117/36 47/118/36 49/119/36 51/120/36 53/121/36 55/122/36
o wheel3_Cylinder.003
v 0.698214 0.485198 -0.535899
v 0.330047 0.485198 -0.535899
v 0.698214 0.203683 -0.548190
v 0.330047 0.203683 -0.548190
v 0.698214 0.013314 -0.755943
v 0.330047 0.013314 -0.755943
v 0.698214 0.025605 -1.037457
v 0.330047 0.025605 -1.037457
v 0.698214 0.233357 -1.227827
v 0.330047 0.233357 -1.227827
v 0.698214 0.514872 -1.215536
v 0.330047 0.514872 -1.215536
v 0.698214 0.705242 -1.007784
v 0.330047 0.705242 -1.007784
v 0.698214 0.692950 -0.726269
v 0.330047 0.692950 -0.726269
vt 1.000000 0.500000
vt 1.000000 1.000000
vt 0.875000 1.000000
vt 0.875000 0.500000
vt 0.750000 1.000000
vt 0.750000 0.500000
vt 0.625000 1.000000
vt 0.625000 0.500000
vt 0.500000 1.000000
vt 0.500000 0.500000
vt 0.375000 1.000000
vt 0.375000 0.500000
vt 0.250000 1.000000
vt 0.250000 0.500000
vt 0.419706 0.419706
vt 0.250000 0.490000
vt 0.080294 0.419706
vt 0.010000 0.250000
vt 0.080294 0.080294
vt 0.250000 0.010000
vt 0.419706 0.080294
vt 0.490000 0.250000
vt 0.125000 1.000000
vt 0.125000 0.500000
vt 0.000000 1.000000
vt 0.000000 0.500000
vt 0.750000 0.490000
vt 0.919706 0.419706
vt 0.990000 0.250000
vt 0.919706 0.080294
vt 0.750000 0.010000
vt 0.580294 0.080294
vt 0.510000 0.250000
vt 0.580294 0.419706
vn -0.0000 -0.0436 0.9990
vn 0.0000 -0.7373 0.6756
vn 0.0000 -0.9990 -0.0436
vn -0.0000 -0.6756 -0.7373
vn 0.0000 0.0436 -0.9990
vn 0.0000 0.7373 -0.6756
vn -1.0000 0.0000 -0.0000
vn 0.0000 0.9990 0.0436
vn 0.0000 0.6756 0.7373
vn 1.0000 -0.0000 0.0000
usemtl Material.001
s off
f 57/123/37 58/124/37 60/125/37 59/126/37
f 59/126/38 60/125/38 62/127/38 61/128/38
f 61/128/39 62/127/39 64/129/39 63/130/39
f 63/130/40 64/129/40 66/131/40 65/132/40
f 65/132/41 66/131/41 68/133/41 67/134/41
f 67/134/42 68/133/42 70/135/42 69/136/42
f 60/137/43 58/138/43 72/139/43 70/140/43 68/141/43 66/142/43 64/143/43 62/144/43
f 69/136/44 70/135/44 72/145/44 71/146/44
f 71/146/45 72/145/45 58/147/45 57/148/45
f 57/149/46 59/150/46 61/151/46 63/152/46 65/153/46 67/154/46 69/155/46 71/156/46
