# Blender v2.82 (sub 7) OBJ File: 'mushroom.blend'
# www.blender.org
mtllib mushroom.mtl
o Sphere_Sphere.001
v 0.000000 -1.122093 -0.798744
v -0.000000 -0.316349 -0.578929
v 0.564797 -1.122093 -0.564797
v 0.409364 -0.316349 -0.409365
v 0.798744 -1.122093 0.000000
v 0.578929 -0.316349 0.000000
v 0.564797 -1.122093 0.564797
v 0.409364 -0.316349 0.409365
v -0.000000 -1.122093 0.798744
v -0.000000 -0.316349 0.578929
v -0.564797 -1.122093 0.564797
v -0.409365 -0.316349 0.409364
v -0.798744 -1.122093 -0.000000
v -0.578929 -0.316349 -0.000000
v -0.564797 -1.122093 -0.564797
v -0.409365 -0.316349 -0.409364
v 0.000000 0.322660 -0.402872
v 0.284874 0.322660 -0.284873
v 0.402872 0.322660 0.000000
v 0.284874 0.322660 0.284873
v -0.000000 0.322660 0.402872
v -0.284874 0.322660 0.284873
v -0.402872 0.322660 -0.000000
v -0.284874 0.322660 -0.284873
vt 1.000000 0.500000
vt 1.000000 1.000000
vt 0.875000 1.000000
vt 0.875000 0.500000
vt 0.750000 1.000000
vt 0.750000 0.500000
vt 0.625000 1.000000
vt 0.625000 0.500000
vt 0.500000 1.000000
vt 0.500000 0.500000
vt 0.375000 1.000000
vt 0.375000 0.500000
vt 0.250000 1.000000
vt 0.250000 0.500000
vt 0.000000 1.000000
vt 0.125000 1.000000
vt 0.125000 1.000000
vt 0.000000 1.000000
vt 0.125000 0.500000
vt 0.000000 0.500000
vt 0.750000 0.490000
vt 0.919706 0.419706
vt 0.990000 0.250000
vt 0.919706 0.080294
vt 0.750000 0.010000
vt 0.580294 0.080294
vt 0.510000 0.250000
vt 0.580294 0.419706
vt 0.419706 0.419706
vt 0.250000 0.490000
vt 0.080294 0.419706
vt 0.010000 0.250000
vt 0.080294 0.080294
vt 0.250000 0.010000
vt 0.419706 0.080294
vt 0.490000 0.250000
vt 1.000000 1.000000
vt 0.875000 1.000000
vt 0.750000 1.000000
vt 0.625000 1.000000
vt 0.375000 1.000000
vt 0.250000 1.000000
vt 0.500000 1.000000
vn 0.3711 0.2444 -0.8959
vn 0.8959 0.2444 -0.3711
vn 0.8959 0.2444 0.3711
vn 0.3711 0.2444 0.8959
vn -0.3711 0.2444 0.8959
vn -0.8959 0.2444 0.3711
vn -0.3709 0.2467 -0.8953
vn -0.8959 0.2444 -0.3711
vn -0.3711 0.2444 -0.8959
vn 0.0000 -1.0000 0.0000
vn 0.0000 1.0000 0.0000
vn 0.3709 0.2467 -0.8953
vn 0.8953 0.2467 0.3709
vn -0.8953 0.2467 0.3709
vn 0.3709 0.2467 0.8953
vn -0.8953 0.2467 -0.3709
vn 0.8953 0.2467 -0.3709
vn -0.3709 0.2467 0.8953
usemtl Material.002
s off
f 1/1/1 2/2/1 4/3/1 3/4/1
f 3/4/2 4/3/2 6/5/2 5/6/2
f 5/6/3 6/5/3 8/7/3 7/8/3
f 7/8/4 8/7/4 10/9/4 9/10/4
f 9/10/5 10/9/5 12/11/5 11/12/5
f 11/12/6 12/11/6 14/13/6 13/14/6
f 2/15/7 16/16/7 24/17/7 17/18/7
f 13/14/8 14/13/8 16/16/8 15/19/8
f 15/19/9 16/16/9 2/15/9 1/20/9
f 1/21/10 3/22/10 5/23/10 7/24/10 9/25/10 11/26/10 13/27/10 15/28/10
f 18/29/11 17/30/11 24/31/11 23/32/11 22/33/11 21/34/11 20/35/11 19/36/11
f 4/3/12 2/2/12 17/37/12 18/38/12
f 8/7/13 6/5/13 19/39/13 20/40/13
f 14/13/14 12/11/14 22/41/14 23/42/14
f 10/9/15 8/7/15 20/40/15 21/43/15
f 16/16/16 14/13/16 23/42/16 24/17/16
f 6/5/17 4/3/17 18/38/17 19/39/17
f 12/11/18 10/9/18 21/43/18 22/41/18
o Sphere.001_Sphere.002
v 0.043404 1.137011 -0.423519
v 0.031293 0.835020 -1.535049
v 0.024586 0.667806 -1.805026
v 0.016935 0.477034 -2.005638
v 0.008634 0.270034 -2.129174
v -0.000000 0.054762 -2.170887
v 0.205348 1.130516 -0.391280
v 0.358550 1.061478 -0.767524
v 0.497973 0.953752 -1.114273
v 0.618259 0.811479 -1.418200
v 0.714786 0.640126 -1.667627
v 0.783844 0.446277 -1.852968
v 0.822779 0.237382 -1.967100
v 0.830095 0.021470 -2.005638
v 0.342637 1.125010 -0.299473
v 0.627852 1.050677 -0.587437
v 0.888939 0.938072 -0.852827
v 1.115865 0.791523 -1.085443
v 1.299908 0.616659 -1.276346
v 1.433997 0.420202 -1.418200
v 1.512978 0.209702 -1.505553
v 1.533816 -0.006753 -1.535049
v 0.434371 1.121331 -0.162073
v 0.807794 1.043461 -0.317918
v 1.150174 0.927595 -0.461546
v 1.448354 0.778188 -0.587437
v 1.690874 0.600979 -0.690753
v 1.868415 0.402780 -0.767524
v 1.974154 0.191206 -0.814799
v 2.004028 -0.025611 -0.830762
v 0.466584 1.120039 0.000001
v 0.870981 1.040927 0.000001
v 1.241908 0.923916 0.000001
v 1.565109 0.773505 0.000001
v 1.828163 0.595473 0.000001
v 2.020963 0.396662 0.000001
v 2.136098 0.184711 0.000001
v 2.169144 -0.032233 0.000001
v 0.434371 1.121331 0.162075
v 0.807794 1.043461 0.317920
v 1.150174 0.927595 0.461548
v 1.448354 0.778188 0.587439
v 1.690874 0.600979 0.690755
v 1.868415 0.402780 0.767526
v 1.974154 0.191206 0.814801
v 2.004027 -0.025611 0.830764
v 0.342637 1.125010 0.299474
v 0.627852 1.050677 0.587439
v 0.888939 0.938072 0.852829
v 1.115864 0.791523 1.085444
v 1.299908 0.616659 1.276348
v 1.433996 0.420202 1.418201
v 1.512978 0.209702 1.505554
v 1.533816 -0.006753 1.535050
v 0.205348 1.130516 0.391282
v 0.358549 1.061478 0.767526
v 0.497972 0.953752 1.114274
v 0.618258 0.811479 1.418201
v 0.714785 0.640126 1.667628
v 0.783843 0.446277 1.852969
v 0.822779 0.237382 1.967101
v 0.830095 0.021470 2.005639
v 0.043404 1.137011 0.423520
v 0.040886 1.074218 0.830764
v 0.036796 0.972248 1.206081
v 0.031292 0.835020 1.535050
v 0.024586 0.667806 1.805027
v 0.016935 0.477034 2.005639
v 0.008633 0.270034 2.129175
v -0.000000 0.054762 2.170888
v -0.118540 1.143506 0.391282
v -0.276778 1.086958 0.767525
v -0.424380 0.990744 1.114274
v -0.555674 0.858560 1.418201
v -0.665613 0.695487 1.667628
v -0.749973 0.507791 1.852969
v -0.805512 0.302686 1.967101
v -0.830096 0.088053 2.005639
v -0.255829 1.149012 0.299474
v -0.546081 1.097758 0.587439
v -0.815347 1.006424 0.852828
v -1.053279 0.878517 1.085444
v -1.250735 0.718954 1.276347
v -1.400126 0.533866 1.418201
v -1.495711 0.330366 1.505553
v -1.533816 0.116276 1.535049
v 0.044254 1.158213 0.000001
v -0.347563 1.152691 0.162074
v -0.726023 1.104975 0.317920
v -1.076582 1.016900 0.461547
v -1.385768 0.891852 0.587438
v -1.641701 0.734634 0.690754
v -1.834545 0.551288 0.767525
v -1.956887 0.348862 0.814800
v -2.004027 0.135134 0.830763
v -0.379775 1.153983 0.000001
v -0.789210 1.107509 0.000000
v -1.168316 1.020579 0.000000
v -1.502523 0.896534 0.000000
v -1.778990 0.740139 -0.000000
v -1.987092 0.557407 -0.000000
v -2.118830 0.355357 0.000000
v -2.169143 0.141756 -0.000000
v -0.347563 1.152691 -0.162073
v -0.726022 1.104975 -0.317919
v -1.076582 1.016900 -0.461547
v -1.385768 0.891852 -0.587437
v -1.641701 0.734633 -0.690754
v -1.834544 0.551288 -0.767525
v -1.956886 0.348862 -0.814799
v -2.004027 0.135134 -0.830763
v -0.255829 1.149012 -0.299473
v -0.546080 1.097758 -0.587438
v -0.815346 1.006424 -0.852827
v -1.053278 0.878517 -1.085443
v -1.250734 0.718954 -1.276346
v -1.400125 0.533866 -1.418200
v -1.495710 0.330366 -1.505553
v -1.533815 0.116276 -1.535049
v -0.118539 1.143506 -0.391280
v -0.276778 1.086958 -0.767524
v -0.424379 0.990744 -1.114273
v -0.555673 0.858560 -1.418200
v -0.665611 0.695487 -1.667627
v -0.749972 0.507791 -1.852968
v -0.805511 0.302686 -1.967099
v -0.830094 0.088053 -2.005638
v 0.040886 1.074218 -0.830762
v 0.036797 0.972248 -1.206080
vt 0.750000 0.812500
vt 0.750000 0.875000
vt 0.687500 0.875000
vt 0.687500 0.812500
vt 0.750000 0.750000
vt 0.687500 0.750000
vt 0.750000 0.687500
vt 0.687500 0.687500
vt 0.750000 0.625000
vt 0.687500 0.625000
vt 0.750000 0.562500
vt 0.687500 0.562500
vt 0.750000 0.500000
vt 0.687500 0.500000
vt 0.750000 0.937500
vt 0.718750 1.000000
vt 0.687500 0.937500
vt 0.625000 0.937500
vt 0.625000 0.875000
vt 0.625000 0.812500
vt 0.625000 0.750000
vt 0.625000 0.687500
vt 0.625000 0.625000
vt 0.625000 0.562500
vt 0.625000 0.500000
vt 0.656250 1.000000
vt 0.562500 0.687500
vt 0.562500 0.625000
vt 0.562500 0.562500
vt 0.562500 0.500000
vt 0.593750 1.000000
vt 0.562500 0.937500
vt 0.562500 0.875000
vt 0.562500 0.812500
vt 0.562500 0.750000
vt 0.500000 0.937500
vt 0.500000 0.875000
vt 0.500000 0.812500
vt 0.500000 0.750000
vt 0.500000 0.687500
vt 0.500000 0.625000
vt 0.500000 0.562500
vt 0.500000 0.500000
vt 0.531250 1.000000
vt 0.437500 0.687500
vt 0.437500 0.625000
vt 0.437500 0.562500
vt 0.437500 0.500000
vt 0.468750 1.000000
vt 0.437500 0.937500
vt 0.437500 0.875000
vt 0.437500 0.812500
vt 0.437500 0.750000
vt 0.375000 0.875000
vt 0.375000 0.812500
vt 0.375000 0.750000
vt 0.375000 0.687500
vt 0.375000 0.625000
vt 0.375000 0.562500
vt 0.375000 0.500000
vt 0.406250 1.000000
vt 0.375000 0.937500
vt 0.312500 0.625000
vt 0.312500 0.562500
vt 0.312500 0.500000
vt 0.343750 1.000000
vt 0.312500 0.937500
vt 0.312500 0.875000
vt 0.312500 0.812500
vt 0.312500 0.750000
vt 0.312500 0.687500
vt 0.250000 0.875000
vt 0.250000 0.812500
vt 0.250000 0.750000
vt 0.250000 0.687500
vt 0.250000 0.625000
vt 0.250000 0.562500
vt 0.250000 0.500000
vt 0.281250 1.000000
vt 0.250000 0.937500
vt 0.187500 0.625000
vt 0.187500 0.562500
vt 0.187500 0.500000
vt 0.218750 1.000000
vt 0.187500 0.937500
vt 0.187500 0.875000
vt 0.187500 0.812500
vt 0.187500 0.750000
vt 0.187500 0.687500
vt 0.125000 0.812500
vt 0.125000 0.750000
vt 0.125000 0.687500
vt 0.125000 0.625000
vt 0.125000 0.562500
vt 0.125000 0.500000
vt 0.156250 1.000000
vt 0.125000 0.937500
vt 0.125000 0.875000
vt 0.062500 0.562500
vt 0.062500 0.500000
vt 0.093750 1.000000
vt 0.062500 0.937500
vt 0.062500 0.875000
vt 0.062500 0.812500
vt 0.062500 0.750000
vt 0.062500 0.687500
vt 0.062500 0.625000
vt 0.000000 0.750000
vt 0.000000 0.687500
vt 0.000000 0.625000
vt 0.000000 0.562500
vt 0.000000 0.500000
vt 0.031250 1.000000
vt 0.000000 0.937500
vt 0.000000 0.875000
vt 0.000000 0.812500
vt 1.000000 0.937500
vt 0.968750 1.000000
vt 0.937500 0.937500
vt 1.000000 0.875000
vt 0.937500 0.875000
vt 1.000000 0.812500
vt 0.937500 0.812500
vt 1.000000 0.750000
vt 0.937500 0.750000
vt 1.000000 0.687500
vt 0.937500 0.687500
vt 1.000000 0.625000
vt 0.937500 0.625000
vt 1.000000 0.562500
vt 0.937500 0.562500
vt 1.000000 0.500000
vt 0.937500 0.500000
vt 0.875000 0.750000
vt 0.875000 0.687500
vt 0.875000 0.625000
vt 0.875000 0.562500
vt 0.875000 0.500000
vt 0.906250 1.000000
vt 0.875000 0.937500
vt 0.875000 0.875000
vt 0.875000 0.812500
vt 0.812500 0.937500
vt 0.812500 0.875000
vt 0.812500 0.812500
vt 0.812500 0.750000
vt 0.812500 0.687500
vt 0.812500 0.625000
vt 0.812500 0.562500
vt 0.812500 0.500000
vt 0.843750 1.000000
vt 0.781250 1.000000
vt 0.000000 0.000000
vt 0.000000 0.000000
vt 0.000000 0.000000
vt 0.000000 0.000000
vt 0.000000 0.000000
vt 0.000000 0.000000
vt 0.000000 0.000000
vt 0.000000 0.000000
vt 0.000000 0.000000
vt 0.000000 0.000000
vt 0.000000 0.000000
vt 0.000000 0.000000
vt 0.000000 0.000000
vt 0.000000 0.000000
vt 0.000000 0.000000
vt 0.000000 0.000000
vn 0.0907 0.9608 -0.2620
vn 0.1132 0.9163 -0.3841
vn 0.1380 0.8405 -0.5240
vn 0.1645 0.7116 -0.6830
vn 0.1885 0.4977 -0.8466
vn 0.1990 0.1787 -0.9636
vn 0.0500 0.9975 -0.0500
vn 0.0699 0.9858 -0.1524
vn 0.1259 0.9836 -0.1292
vn 0.1869 0.9569 -0.2221
vn 0.2543 0.9107 -0.3256
vn 0.3304 0.8328 -0.4442
vn 0.4153 0.7016 -0.5790
vn 0.4994 0.4852 -0.7177
vn 0.5529 0.1645 -0.8169
vn 0.0683 0.9968 -0.0424
vn 0.6073 0.6939 -0.3869
vn 0.7374 0.4757 -0.4796
vn 0.8237 0.1537 -0.5458
vn 0.0824 0.9962 -0.0283
vn 0.1687 0.9819 -0.0863
vn 0.2606 0.9540 -0.1484
vn 0.3623 0.9063 -0.2176
vn 0.4777 0.8268 -0.2968
vn 0.1919 0.9809 -0.0303
vn 0.3004 0.9524 -0.0521
vn 0.4207 0.9040 -0.0764
vn 0.5574 0.8237 -0.1042
vn 0.7112 0.6897 -0.1359
vn 0.8662 0.4705 -0.1684
vn 0.9703 0.1478 -0.1917
vn 0.0900 0.9959 -0.0100
vn 0.7112 0.6897 0.1359
vn 0.8662 0.4705 0.1684
vn 0.9703 0.1478 0.1917
vn 0.0900 0.9959 0.0100
vn 0.1919 0.9809 0.0303
vn 0.3004 0.9524 0.0521
vn 0.4207 0.9040 0.0764
vn 0.5574 0.8237 0.1042
vn 0.2606 0.9540 0.1484
vn 0.3623 0.9063 0.2176
vn 0.4777 0.8268 0.2968
vn 0.6073 0.6939 0.3869
vn 0.7374 0.4757 0.4796
vn 0.8237 0.1537 0.5458
vn 0.0824 0.9962 0.0283
vn 0.1687 0.9819 0.0863
vn 0.4994 0.4852 0.7177
vn 0.5529 0.1645 0.8169
vn 0.0683 0.9968 0.0424
vn 0.1259 0.9836 0.1292
vn 0.1869 0.9569 0.2221
vn 0.2543 0.9107 0.3257
vn 0.3304 0.8328 0.4442
vn 0.4153 0.7016 0.5790
vn 0.0907 0.9608 0.2620
vn 0.1132 0.9163 0.3841
vn 0.1380 0.8405 0.5240
vn 0.1645 0.7116 0.6830
vn 0.1885 0.4977 0.8466
vn 0.1990 0.1787 0.9636
vn 0.0500 0.9975 0.0500
vn 0.0699 0.9858 0.1524
vn -0.1480 0.5112 0.8466
vn -0.1840 0.1941 0.9636
vn 0.0301 0.9983 0.0500
vn 0.0093 0.9883 0.1524
vn -0.0135 0.9650 0.2620
vn -0.0395 0.9224 0.3841
vn -0.0703 0.8488 0.5240
vn -0.1070 0.7225 0.6830
vn -0.1805 0.9281 0.3257
vn -0.2627 0.8565 0.4442
vn -0.3578 0.7326 0.5790
vn -0.4590 0.5237 0.7177
vn -0.5379 0.2083 0.8169
vn 0.0117 0.9990 0.0424
vn -0.0467 0.9905 0.1292
vn -0.1097 0.9688 0.2221
vn -0.8087 0.2191 0.5458
vn -0.0024 0.9996 0.0283
vn -0.0895 0.9922 0.0863
vn -0.1833 0.9718 0.1484
vn -0.2885 0.9324 0.2176
vn -0.4100 0.8624 0.2968
vn -0.5498 0.7403 0.3869
vn -0.6969 0.5332 0.4796
vn -0.4897 0.8656 0.1042
vn -0.6537 0.7445 0.1359
vn -0.8257 0.5384 0.1684
vn -0.9553 0.2250 0.1917
vn -0.0100 0.9999 0.0100
vn -0.1127 0.9932 0.0303
vn -0.2232 0.9734 0.0521
vn -0.3470 0.9348 0.0764
vn -0.0100 0.9999 -0.0100
vn -0.1127 0.9932 -0.0303
vn -0.2232 0.9734 -0.0521
vn -0.3470 0.9348 -0.0764
vn -0.4897 0.8656 -0.1042
vn -0.6537 0.7445 -0.1359
vn -0.8257 0.5384 -0.1684
vn -0.9553 0.2250 -0.1917
vn -0.4100 0.8624 -0.2968
vn -0.5498 0.7403 -0.3869
vn -0.6969 0.5332 -0.4796
vn -0.8087 0.2191 -0.5458
vn -0.0024 0.9996 -0.0283
vn -0.0895 0.9922 -0.0863
vn -0.1833 0.9718 -0.1484
vn -0.2885 0.9324 -0.2176
vn -0.0467 0.9905 -0.1292
vn -0.1097 0.9688 -0.2221
vn -0.1805 0.9281 -0.3257
vn -0.2627 0.8565 -0.4442
vn -0.3578 0.7326 -0.5790
vn -0.4590 0.5237 -0.7177
vn -0.5379 0.2083 -0.8169
vn 0.0117 0.9990 -0.0424
vn -0.1070 0.7225 -0.6830
vn -0.1480 0.5112 -0.8466
vn -0.1840 0.1941 -0.9636
vn 0.0301 0.9983 -0.0500
vn 0.0093 0.9883 -0.1524
vn -0.0135 0.9650 -0.2620
vn -0.0395 0.9224 -0.3841
vn -0.0703 0.8488 -0.5240
vn -0.0401 -0.9992 -0.0000
vn 0.0401 0.9992 -0.0000
usemtl Material.001
s off
f 153/44/19 152/45/19 32/46/19 33/47/19
f 26/48/20 153/44/20 33/47/20 34/49/20
f 27/50/21 26/48/21 34/49/21 35/51/21
f 28/52/22 27/50/22 35/51/22 36/53/22
f 29/54/23 28/52/23 36/53/23 37/55/23
f 30/56/24 29/54/24 37/55/24 38/57/24
f 25/58/25 111/59/25 31/60/25
f 152/45/26 25/58/26 31/60/26 32/46/26
f 32/46/27 31/60/27 39/61/27 40/62/27
f 33/47/28 32/46/28 40/62/28 41/63/28
f 34/49/29 33/47/29 41/63/29 42/64/29
f 35/51/30 34/49/30 42/64/30 43/65/30
f 36/53/31 35/51/31 43/65/31 44/66/31
f 37/55/32 36/53/32 44/66/32 45/67/32
f 38/57/33 37/55/33 45/67/33 46/68/33
f 31/60/34 111/69/34 39/61/34
f 44/66/35 43/65/35 51/70/35 52/71/35
f 45/67/36 44/66/36 52/71/36 53/72/36
f 46/68/37 45/67/37 53/72/37 54/73/37
f 39/61/38 111/74/38 47/75/38
f 40/62/39 39/61/39 47/75/39 48/76/39
f 41/63/40 40/62/40 48/76/40 49/77/40
f 42/64/41 41/63/41 49/77/41 50/78/41
f 43/65/42 42/64/42 50/78/42 51/70/42
f 48/76/43 47/75/43 55/79/43 56/80/43
f 49/77/44 48/76/44 56/80/44 57/81/44
f 50/78/45 49/77/45 57/81/45 58/82/45
f 51/70/46 50/78/46 58/82/46 59/83/46
f 52/71/47 51/70/47 59/83/47 60/84/47
f 53/72/48 52/71/48 60/84/48 61/85/48
f 54/73/49 53/72/49 61/85/49 62/86/49
f 47/75/50 111/87/50 55/79/50
f 60/84/51 59/83/51 67/88/51 68/89/51
f 61/85/52 60/84/52 68/89/52 69/90/52
f 62/86/53 61/85/53 69/90/53 70/91/53
f 55/79/54 111/92/54 63/93/54
f 56/80/55 55/79/55 63/93/55 64/94/55
f 57/81/56 56/80/56 64/94/56 65/95/56
f 58/82/57 57/81/57 65/95/57 66/96/57
f 59/83/58 58/82/58 66/96/58 67/88/58
f 65/95/59 64/94/59 72/97/59 73/98/59
f 66/96/60 65/95/60 73/98/60 74/99/60
f 67/88/61 66/96/61 74/99/61 75/100/61
f 68/89/62 67/88/62 75/100/62 76/101/62
f 69/90/63 68/89/63 76/101/63 77/102/63
f 70/91/64 69/90/64 77/102/64 78/103/64
f 63/93/65 111/104/65 71/105/65
f 64/94/66 63/93/66 71/105/66 72/97/66
f 77/102/67 76/101/67 84/106/67 85/107/67
f 78/103/68 77/102/68 85/107/68 86/108/68
f 71/105/69 111/109/69 79/110/69
f 72/97/70 71/105/70 79/110/70 80/111/70
f 73/98/71 72/97/71 80/111/71 81/112/71
f 74/99/72 73/98/72 81/112/72 82/113/72
f 75/100/73 74/99/73 82/113/73 83/114/73
f 76/101/74 75/100/74 83/114/74 84/106/74
f 81/112/75 80/111/75 88/115/75 89/116/75
f 82/113/76 81/112/76 89/116/76 90/117/76
f 83/114/77 82/113/77 90/117/77 91/118/77
f 84/106/78 83/114/78 91/118/78 92/119/78
f 85/107/79 84/106/79 92/119/79 93/120/79
f 86/108/80 85/107/80 93/120/80 94/121/80
f 79/110/81 111/122/81 87/123/81
f 80/111/82 79/110/82 87/123/82 88/115/82
f 93/120/83 92/119/83 100/124/83 101/125/83
f 94/121/84 93/120/84 101/125/84 102/126/84
f 87/123/85 111/127/85 95/128/85
f 88/115/86 87/123/86 95/128/86 96/129/86
f 89/116/87 88/115/87 96/129/87 97/130/87
f 90/117/88 89/116/88 97/130/88 98/131/88
f 91/118/89 90/117/89 98/131/89 99/132/89
f 92/119/90 91/118/90 99/132/90 100/124/90
f 98/131/91 97/130/91 105/133/91 106/134/91
f 99/132/92 98/131/92 106/134/92 107/135/92
f 100/124/93 99/132/93 107/135/93 108/136/93
f 101/125/94 100/124/94 108/136/94 109/137/94
f 102/126/95 101/125/95 109/137/95 110/138/95
f 95/128/96 111/139/96 103/140/96
f 96/129/97 95/128/97 103/140/97 104/141/97
f 97/130/98 96/129/98 104/141/98 105/133/98
f 110/138/99 109/137/99 118/142/99 119/143/99
f 103/140/100 111/144/100 112/145/100
f 104/141/101 103/140/101 112/145/101 113/146/101
f 105/133/102 104/141/102 113/146/102 114/147/102
f 106/134/103 105/133/103 114/147/103 115/148/103
f 107/135/104 106/134/104 115/148/104 116/149/104
f 108/136/105 107/135/105 116/149/105 117/150/105
f 109/137/106 108/136/106 117/150/106 118/142/106
f 116/149/107 115/148/107 123/151/107 124/152/107
f 117/150/108 116/149/108 124/152/108 125/153/108
f 118/142/109 117/150/109 125/153/109 126/154/109
f 119/143/110 118/142/110 126/154/110 127/155/110
f 112/145/111 111/156/111 120/157/111
f 113/146/112 112/145/112 120/157/112 121/158/112
f 114/147/113 113/146/113 121/158/113 122/159/113
f 115/148/114 114/147/114 122/159/114 123/151/114
f 120/160/115 111/161/115 128/162/115
f 121/163/116 120/160/116 128/162/116 129/164/116
f 122/165/117 121/163/117 129/164/117 130/166/117
f 123/167/118 122/165/118 130/166/118 131/168/118
f 124/169/119 123/167/119 131/168/119 132/170/119
f 125/171/120 124/169/120 132/170/120 133/172/120
f 126/173/121 125/171/121 133/172/121 134/174/121
f 127/175/122 126/173/122 134/174/122 135/176/122
f 132/170/123 131/168/123 139/177/123 140/178/123
f 133/172/124 132/170/124 140/178/124 141/179/124
f 134/174/125 133/172/125 141/179/125 142/180/125
f 135/176/126 134/174/126 142/180/126 143/181/126
f 128/162/127 111/182/127 136/183/127
f 129/164/128 128/162/128 136/183/128 137/184/128
f 130/166/129 129/164/129 137/184/129 138/185/129
f 131/168/130 130/166/130 138/185/130 139/177/130
f 137/184/131 136/183/131 144/186/131 145/187/131
f 138/185/132 137/184/132 145/187/132 146/188/132
f 139/177/133 138/185/133 146/188/133 147/189/133
f 140/178/134 139/177/134 147/189/134 148/190/134
f 141/179/135 140/178/135 148/190/135 149/191/135
f 142/180/136 141/179/136 149/191/136 150/192/136
f 143/181/137 142/180/137 150/192/137 151/193/137
f 136/183/138 111/194/138 144/186/138
f 149/191/139 148/190/139 27/50/139 28/52/139
f 150/192/140 149/191/140 28/52/140 29/54/140
f 151/193/141 150/192/141 29/54/141 30/56/141
f 144/186/142 111/195/142 25/58/142
f 145/187/143 144/186/143 25/58/143 152/45/143
f 146/188/144 145/187/144 152/45/144 153/44/144
f 147/189/145 146/188/145 153/44/145 26/48/145
f 148/190/146 147/189/146 26/48/146 27/50/146
f 38/57/147 46/68/147 54/73/147 62/86/147 70/91/147 78/103/147 86/108/147 94/121/147 102/126/147 110/138/147 119/143/147 127/155/147 135/176/147 143/181/147 151/193/147 30/56/147
f 38/196/148 30/197/148 151/198/148
f 143/199/148 46/200/148 151/198/148
f 119/201/148 143/199/148 135/202/148
f 46/200/148 38/196/148 151/198/148
f 127/203/148 119/201/148 135/202/148
f 62/204/148 54/205/148 46/200/148
f 70/206/148 143/199/148 119/201/148
f 62/204/148 46/200/148 143/199/148
f 70/206/148 119/201/148 110/207/148
f 110/207/148 86/208/148 70/206/148
f 102/209/148 86/208/148 110/207/148
f 86/208/148 78/210/148 70/206/148
f 86/208/148 102/209/148 94/211/148
f 62/204/148 143/199/148 70/206/148
