# Blender v2.82 (sub 7) OBJ File: 'rock2.blend'
# www.blender.org
mtllib rock2.mtl
o Cube
v 0.761601 0.254411 -0.848016
v 1.095908 -0.406539 -0.580833
v 0.523260 0.625892 1.214784
v 0.775342 -0.450606 0.705544
v -1.048811 0.426352 -0.595813
v -1.249825 -0.324249 -0.871145
v -1.189853 0.263463 0.945908
v -1.042334 -0.432087 0.965284
v -1.413990 -0.327119 0.132213
v -0.004743 -0.449144 -1.072754
v 1.112455 -0.048446 -0.555776
v -0.967356 -0.046029 1.012773
v 0.769216 -0.027797 0.960608
v -0.944756 -0.022310 -0.946024
v -0.101470 0.486370 0.808414
v 0.933723 0.224164 0.231798
v 0.021580 -0.515466 1.290674
v -1.312125 0.410903 0.132718
v -0.214364 0.424390 -1.091024
v 0.797887 -0.415033 0.222461
v 0.144276 0.000953 -1.170644
v 0.800567 -0.157793 -0.299213
v -0.043362 -0.373902 -0.053651
v -1.374536 -0.089261 0.082448
v 0.054850 0.131490 1.290399
v -0.310391 0.680058 0.027798
vt 0.500000 0.125000
vt 0.625000 0.125000
vt 0.625000 0.250000
vt 0.500000 0.250000
vt 0.500000 0.375000
vt 0.625000 0.375000
vt 0.625000 0.500000
vt 0.500000 0.500000
vt 0.500000 0.625000
vt 0.625000 0.625000
vt 0.625000 0.750000
vt 0.500000 0.750000
vt 0.500000 0.875000
vt 0.625000 0.875000
vt 0.625000 1.000000
vt 0.500000 1.000000
vt 0.250000 0.625000
vt 0.375000 0.625000
vt 0.375000 0.750000
vt 0.250000 0.750000
vt 0.750000 0.625000
vt 0.875000 0.625000
vt 0.875000 0.750000
vt 0.750000 0.750000
vt 0.625000 0.625000
vt 0.625000 0.750000
vt 0.625000 0.500000
vt 0.750000 0.500000
vt 0.875000 0.500000
vt 0.125000 0.625000
vt 0.125000 0.750000
vt 0.125000 0.500000
vt 0.250000 0.500000
vt 0.375000 0.500000
vt 0.375000 0.875000
vt 0.375000 1.000000
vt 0.375000 0.750000
vt 0.500000 0.750000
vt 0.375000 0.625000
vt 0.375000 0.500000
vt 0.375000 0.375000
vt 0.375000 0.250000
vt 0.500000 0.250000
vt 0.625000 0.250000
vt 0.375000 0.125000
vt 0.375000 0.250000
vt 0.375000 0.000000
vt 0.500000 0.000000
vt 0.625000 0.000000
vn -0.1953 0.9499 0.2439
vn -0.1619 0.5720 0.8041
vn -0.9262 0.1114 -0.3601
vn -0.0039 -0.9953 -0.0964
vn 0.9778 -0.0482 0.2040
vn 0.4129 0.1399 -0.9000
vn 0.4641 -0.1734 -0.8686
vn -0.1833 -0.1137 -0.9765
vn -0.3406 0.2640 -0.9024
vn 0.9994 0.0168 0.0300
vn 0.7854 0.3737 0.4935
vn 0.9572 0.2599 0.1273
vn -0.0472 -0.9936 -0.1030
vn -0.0611 -0.9977 0.0296
vn -0.0128 -0.9993 0.0342
vn -0.8436 0.4853 -0.2299
vn -0.8998 0.1665 0.4032
vn -0.9440 -0.1810 0.2758
vn -0.2770 -0.0149 0.9607
vn 0.5070 -0.2119 0.8355
vn -0.0530 0.1999 0.9784
vn 0.1956 0.9763 -0.0928
vn 0.2898 0.9510 -0.1075
vn -0.1942 0.9672 -0.1635
usemtl Material
s off
f 26/1/1 18/2/1 7/3/1 15/4/1
f 25/5/2 15/6/2 7/7/2 12/8/2
f 24/9/3 18/10/3 5/11/3 14/12/3
f 23/13/4 20/14/4 4/15/4 17/16/4
f 22/17/5 16/18/5 3/19/5 13/20/5
f 21/21/6 19/22/6 1/23/6 11/24/6
f 10/25/7 21/21/7 11/24/7 2/26/7
f 6/27/8 14/28/8 21/21/8 10/25/8
f 14/28/9 5/29/9 19/22/9 21/21/9
f 20/30/10 22/17/10 13/20/10 4/31/10
f 2/32/11 11/33/11 22/17/11 20/30/11
f 11/33/12 1/34/12 16/18/12 22/17/12
f 9/35/13 23/13/13 17/16/13 8/36/13
f 6/37/14 10/38/14 23/13/14 9/35/14
f 10/38/15 2/26/15 20/14/15 23/13/15
f 9/39/16 24/9/16 14/12/16 6/37/16
f 8/40/17 12/8/17 24/9/17 9/39/17
f 12/8/18 7/7/18 18/10/18 24/9/18
f 17/41/19 25/5/19 12/8/19 8/40/19
f 4/42/20 13/43/20 25/5/20 17/41/20
f 13/43/21 3/44/21 15/6/21 25/5/21
f 16/45/22 26/1/22 15/4/22 3/46/22
f 1/47/23 19/48/23 26/1/23 16/45/23
f 19/48/24 5/49/24 18/2/24 26/1/24
