# Blender v2.82 (sub 7) OBJ File: 'room2.blend'
# www.blender.org
mtllib room2.mtl
o room_Plane
v 2.000000 0.000000 -2.000000
v -4.620989 0.000000 -2.000000
v 2.000000 0.000000 2.000000
v -4.620989 0.000000 2.000000
v 2.000000 3.207277 -2.000000
v 2.000000 3.207277 2.000000
v -4.620989 3.207277 2.000000
vt 0.166667 -0.166667
vt 1.166667 -0.166667
vt 1.166667 0.833333
vt 0.166667 0.833333
vt 0.166667 0.318059
vt 1.166667 0.318059
vt 1.166667 0.863881
vt 0.166667 0.863881
vt -0.166667 0.318059
vt 0.833333 0.318059
vt 0.833333 0.863881
vt -0.166667 0.863881
vn 0.0000 1.0000 0.0000
vn 0.0000 0.0000 -1.0000
vn -1.0000 0.0000 0.0000
usemtl Material.004
s off
f 1/1/1 2/2/1 4/3/1 3/4/1
f 3/5/2 4/6/2 7/7/2 6/8/2
f 1/9/3 3/10/3 6/11/3 5/12/3
o door_Plane.001
v 1.978867 0.005247 -1.027592
v 1.978867 0.005247 -0.006081
v 1.978868 1.758003 -1.027592
v 1.978867 1.758003 -0.006080
vt 0.000000 0.000000
vt 1.000000 0.000000
vt 1.000000 1.000000
vt 0.000000 1.000000
vn -1.0000 0.0000 -0.0000
usemtl Material.003
s off
f 8/13/4 9/14/4 11/15/4 10/16/4
o taulu_Plane.002
v -0.790242 1.002713 1.977900
v -1.294026 1.002713 1.977900
v -0.790242 1.506496 1.977900
v -1.294026 1.506496 1.977900
vt 0.000000 0.000000
vt 1.000000 0.000000
vt 1.000000 1.000000
vt 0.000000 1.000000
vn 0.0000 0.0000 -1.0000
usemtl Material.001
s off
f 12/17/5 13/18/5 15/19/5 14/20/5
o window_Plane.003
v 1.149798 0.534428 1.992318
v -0.006504 0.534428 1.992318
v 1.149798 1.749566 1.992318
v -0.006504 1.749566 1.992318
vt 0.000000 0.000000
vt 1.000000 0.000000
vt 1.000000 1.000000
vt 0.000000 1.000000
vn 0.0000 0.0000 -1.0000
usemtl Material.002
s off
f 16/21/6 17/22/6 19/23/6 18/24/6
o table_Cube.001
v 0.352268 -0.007170 0.712025
v 0.352268 0.580415 0.712025
v 0.352268 -0.007170 1.299611
v 0.352268 0.580415 1.299611
v -1.000755 -0.007170 0.712025
v -1.000755 0.580415 0.712025
v -1.000755 -0.007170 1.299611
v -1.000755 0.580415 1.299611
vt 0.282862 0.282862
vt 0.282862 0.717138
vt 0.717138 0.717138
vt 0.717138 0.282862
vt 0.000000 0.282862
vt 0.000000 0.717138
vt 1.000000 0.717138
vt 1.000000 0.282862
vt 0.717138 0.282862
vt 0.717138 0.717138
vt 0.282862 0.717138
vt 0.282862 0.282862
vt 1.000000 0.282862
vt 1.000000 0.717138
vt 0.000000 0.717138
vt 0.000000 0.282862
vt 0.000000 0.717138
vt 1.000000 0.717138
vt 0.000000 0.282862
vt 1.000000 0.282862
vn 1.0000 0.0000 0.0000
vn 0.0000 0.0000 1.0000
vn -1.0000 0.0000 0.0000
vn 0.0000 0.0000 -1.0000
vn 0.0000 -1.0000 0.0000
vn 0.0000 1.0000 0.0000
usemtl Material.005
s off
f 20/25/7 21/26/7 23/27/7 22/28/7
f 22/29/8 23/30/8 27/31/8 26/32/8
f 26/33/9 27/34/9 25/35/9 24/36/9
f 24/37/10 25/38/10 21/39/10 20/40/10
f 22/41/11 26/42/11 24/37/11 20/40/11
f 27/31/12 23/30/12 21/43/12 25/44/12
