# Blender v2.82 (sub 7) OBJ File: 'tree2.blend'
# www.blender.org
mtllib tree2.mtl
o Cone
v 0.090033 0.027485 0.102691
v 0.592541 0.618614 0.563619
v -0.181256 0.467774 0.763671
v -0.712256 0.318813 -0.043408
v -0.173772 0.189415 -0.660411
v 0.572639 0.603558 -0.345829
v 0.122226 1.073840 0.635890
v -0.648094 1.140499 0.314586
v -0.588436 1.181493 -0.518748
v 0.230046 1.038550 -0.737114
v 0.694381 1.197432 0.061087
v -0.072276 1.543599 -0.125682
v -0.087575 0.157629 0.484390
v 0.400269 0.198177 0.367225
v 0.203567 0.423544 0.681927
v 0.741482 0.267369 0.163874
v 0.436436 0.003535 -0.057087
v -0.320900 0.116397 0.086470
v -0.577306 0.424853 0.395197
v -0.078691 0.075655 -0.270496
v -0.453493 0.290499 -0.404047
v 0.256563 0.077256 -0.564237
v 0.722847 0.998587 0.247227
v 0.804121 0.739425 -0.193427
v -0.000799 0.971373 0.845479
v 0.415487 0.975376 0.653668
v -0.772866 0.759689 0.194901
v -0.581152 0.980763 0.606070
v -0.443447 0.721678 -0.681168
v -0.703032 0.640228 -0.265987
v 0.508525 0.748989 -0.624782
v 0.017064 0.644426 -0.754886
v 0.533611 1.123137 0.369380
v -0.253286 1.372629 0.495268
v -0.718374 1.047912 -0.082100
v -0.202901 1.132125 -0.761579
v 0.538624 1.172866 -0.428310
v -0.008703 1.465028 0.302630
v 0.350119 1.431570 -0.049067
v -0.424373 1.457609 0.112390
v -0.351223 1.535930 -0.452386
v 0.086563 1.413374 -0.502940
vt 0.818181 0.000000
vt 0.772726 0.078731
vt 0.863635 0.078731
vt 0.727272 0.157461
vt 0.681818 0.078731
vt 0.636363 0.157461
vt 0.090909 0.000000
vt 0.045454 0.078731
vt 0.136363 0.078731
vt 0.272727 0.000000
vt 0.227273 0.078731
vt 0.318182 0.078731
vt 0.454545 0.000000
vt 0.409090 0.078731
vt 0.500000 0.078731
vt 0.681818 0.236191
vt 0.909090 0.157461
vt 0.818181 0.157461
vt 0.863635 0.236191
vt 0.181818 0.157461
vt 0.090909 0.157461
vt 0.136363 0.236191
vt 0.363636 0.157461
vt 0.272727 0.157461
vt 0.318182 0.236191
vt 0.545454 0.157461
vt 0.454545 0.157461
vt 0.500000 0.236191
vt 0.772726 0.236191
vt 0.954545 0.236191
vt 0.227273 0.236191
vt 0.409090 0.236191
vt 0.590909 0.236191
vt 0.818181 0.314921
vt 0.727272 0.314921
vt 0.772726 0.393651
vt 1.000000 0.314921
vt 0.909091 0.314921
vt 0.954545 0.393651
vt 0.272727 0.314921
vt 0.181818 0.314921
vt 0.227273 0.393651
vt 0.454545 0.314921
vt 0.363636 0.314921
vt 0.409090 0.393651
vt 0.636363 0.314921
vt 0.545454 0.314921
vt 0.590909 0.393651
vt 0.500000 0.393651
vt 0.545454 0.472382
vt 0.318182 0.393651
vt 0.363636 0.472382
vt 0.136363 0.393651
vt 0.181818 0.472382
vt 0.090909 0.314921
vt 0.863635 0.393651
vt 0.909090 0.472382
vt 0.681818 0.393651
vt 0.727272 0.472382
vt 0.045454 0.236191
vt 0.000000 0.157461
vt 0.590909 0.078731
vt 0.636363 0.000000
vn 0.1684 -0.9064 0.3874
vn 0.5082 -0.5442 0.6675
vn -0.2145 -0.9506 0.2243
vn -0.2102 -0.9772 -0.0311
vn -0.1055 -0.9912 -0.0802
vn 0.9318 -0.0176 0.3626
vn 0.1785 -0.2198 0.9591
vn -0.8853 -0.3094 0.3472
vn -0.6962 -0.3766 -0.6111
vn 0.8538 -0.3546 -0.3811
vn 0.7695 0.2317 0.5951
vn -0.3815 -0.0134 0.9243
vn -0.9890 -0.0639 -0.1333
vn -0.1777 -0.1281 -0.9757
vn 0.6551 -0.5977 -0.4622
vn 0.3437 0.6730 0.6550
vn -0.5950 0.6864 0.4182
vn -0.8226 0.5640 -0.0722
vn 0.1683 0.5678 -0.8058
vn 0.5964 0.7695 -0.2284
vn 0.2853 0.9367 -0.2032
vn 0.4858 0.8154 -0.3148
vn 0.4274 0.5910 -0.6841
vn 0.2384 0.9446 -0.2257
vn 0.0855 0.6253 -0.7757
vn -0.4377 0.4398 -0.7843
vn -0.1616 0.9801 0.1150
vn -0.8071 0.5900 -0.0227
vn -0.8144 0.5802 0.0089
vn -0.1065 0.9751 0.1947
vn -0.1428 0.9508 0.2748
vn 0.2819 0.6751 0.6817
vn 0.2295 0.9628 0.1426
vn 0.4564 0.8000 0.3895
vn 0.4181 0.8091 0.4130
vn 0.8774 0.3759 -0.2981
vn 0.8106 0.1979 -0.5511
vn 0.6072 0.2982 -0.7365
vn 0.0592 0.0130 -0.9982
vn -0.1723 -0.0912 -0.9808
vn -0.5154 0.1363 -0.8460
vn -0.9618 0.0816 -0.2612
vn -0.9868 0.0343 -0.1584
vn -0.9544 0.2801 0.1037
vn -0.5975 0.6374 0.4865
vn -0.3237 0.4983 0.8043
vn 0.3676 0.7320 0.5736
vn 0.2422 0.8161 0.5248
vn 0.6773 0.4988 0.5407
vn 0.6773 0.5521 0.4862
vn 0.2754 -0.1058 -0.9555
vn 0.2893 -0.1930 -0.9376
vn 0.1458 -0.2594 -0.9547
vn -0.8390 -0.0741 -0.5391
vn -0.7688 -0.3330 -0.5460
vn -0.7754 -0.3443 -0.5293
vn -0.9248 0.2015 0.3228
vn -0.8446 -0.1950 0.4986
vn -0.6383 -0.2769 0.7183
vn 0.2393 0.8095 0.5362
vn 0.4167 -0.1138 0.9019
vn 0.3251 -0.0766 0.9426
vn 0.9779 0.1992 0.0632
vn 0.9839 0.0047 0.1787
vn 0.6614 -0.5065 -0.5532
vn 0.8586 -0.3671 -0.3579
vn -0.0925 -0.9895 -0.1110
vn -0.1970 -0.9530 -0.2300
vn -0.4522 -0.8798 -0.1464
vn -0.4347 -0.8793 -0.1946
vn -0.3927 -0.8950 -0.2115
vn -0.5193 -0.7804 0.3484
vn -0.4959 -0.7846 0.3721
vn -0.4688 -0.6651 0.5813
vn 0.7419 -0.4200 -0.5227
vn 0.4092 -0.8156 0.4090
vn 0.1329 -0.8965 0.4226
vn 0.0850 -0.6524 0.7531
vn 0.2174 -0.7242 0.6545
vn 0.4813 -0.5419 0.6889
usemtl Material.002
s off
f 1/1/1 14/2/1 13/3/1
f 2/4/2 14/5/2 16/6/2
f 1/7/3 13/8/3 18/9/3
f 1/10/4 18/11/4 20/12/4
f 1/13/5 20/14/5 17/15/5
f 2/4/6 16/6/6 23/16/6
f 3/17/7 15/18/7 25/19/7
f 4/20/8 19/21/8 27/22/8
f 5/23/9 21/24/9 29/25/9
f 6/26/10 22/27/10 31/28/10
f 2/4/11 23/16/11 26/29/11
f 3/17/12 25/19/12 28/30/12
f 4/20/13 27/22/13 30/31/13
f 5/23/14 29/25/14 32/32/14
f 6/26/15 31/28/15 24/33/15
f 7/34/16 33/35/16 38/36/16
f 8/37/17 34/38/17 40/39/17
f 9/40/18 35/41/18 41/42/18
f 10/43/19 36/44/19 42/45/19
f 11/46/20 37/47/20 39/48/20
f 39/48/21 42/49/21 12/50/21
f 39/48/22 37/47/22 42/49/22
f 37/47/23 10/43/23 42/49/23
f 42/45/24 41/51/24 12/52/24
f 42/45/25 36/44/25 41/51/25
f 36/44/26 9/40/26 41/51/26
f 41/42/27 40/53/27 12/54/27
f 41/42/28 35/41/28 40/53/28
f 35/41/29 8/55/29 40/53/29
f 40/39/30 38/56/30 12/57/30
f 40/39/31 34/38/31 38/56/31
f 34/38/32 7/34/32 38/56/32
f 38/36/33 39/58/33 12/59/33
f 38/36/34 33/35/34 39/58/34
f 33/35/35 11/46/35 39/58/35
f 24/33/36 37/47/36 11/46/36
f 24/33/37 31/28/37 37/47/37
f 31/28/38 10/43/38 37/47/38
f 32/32/39 36/44/39 10/43/39
f 32/32/40 29/25/40 36/44/40
f 29/25/41 9/40/41 36/44/41
f 30/31/42 35/41/42 9/40/42
f 30/31/43 27/22/43 35/41/43
f 27/22/44 8/55/44 35/41/44
f 28/30/45 34/38/45 8/37/45
f 28/30/46 25/19/46 34/38/46
f 25/19/47 7/34/47 34/38/47
f 26/29/48 33/35/48 7/34/48
f 26/29/49 23/16/49 33/35/49
f 23/16/50 11/46/50 33/35/50
f 31/28/51 32/32/51 10/43/51
f 31/28/52 22/27/52 32/32/52
f 22/27/53 5/23/53 32/32/53
f 29/25/54 30/31/54 9/40/54
f 29/25/55 21/24/55 30/31/55
f 21/24/56 4/20/56 30/31/56
f 27/22/57 28/60/57 8/55/57
f 27/22/58 19/21/58 28/60/58
f 19/21/59 3/61/59 28/60/59
f 25/19/60 26/29/60 7/34/60
f 25/19/61 15/18/61 26/29/61
f 15/18/62 2/4/62 26/29/62
f 23/16/63 24/33/63 11/46/63
f 23/16/64 16/6/64 24/33/64
f 16/6/65 6/26/65 24/33/65
f 17/15/66 22/27/66 6/26/66
f 17/15/67 20/14/67 22/27/67
f 20/14/68 5/23/68 22/27/68
f 20/12/69 21/24/69 5/23/69
f 20/12/70 18/11/70 21/24/70
f 18/11/71 4/20/71 21/24/71
f 18/9/72 19/21/72 4/20/72
f 18/9/73 13/8/73 19/21/73
f 13/8/74 3/61/74 19/21/74
f 16/6/75 17/62/75 6/26/75
f 16/6/76 14/5/76 17/62/76
f 14/5/77 1/63/77 17/62/77
f 13/3/78 15/18/78 3/17/78
f 13/3/79 14/2/79 15/18/79
f 14/2/80 2/4/80 15/18/80
o Cone.001
v 0.000000 -1.506776 -0.204236
v 0.000000 0.812146 -0.204236
v 0.159678 -1.506776 -0.127339
v 0.159678 0.812146 -0.127339
v 0.199116 -1.506776 0.045447
v 0.199116 0.812146 0.045447
v 0.088615 -1.506776 0.184011
v 0.088615 0.812146 0.184011
v -0.088615 -1.506776 0.184011
v -0.088615 0.812146 0.184011
v -0.199116 -1.506776 0.045447
v -0.199116 0.812146 0.045447
v -0.159678 -1.506776 -0.127339
v -0.159678 0.812146 -0.127339
vt 1.000000 0.500000
vt 1.000000 1.000000
vt 0.857143 1.000000
vt 0.857143 0.500000
vt 0.714286 1.000000
vt 0.714286 0.500000
vt 0.571429 1.000000
vt 0.571429 0.500000
vt 0.428571 1.000000
vt 0.428571 0.500000
vt 0.285714 1.000000
vt 0.285714 0.500000
vt 0.437640 0.399638
vt 0.250000 0.490000
vt 0.062360 0.399638
vt 0.016017 0.196595
vt 0.145868 0.033767
vt 0.354132 0.033767
vt 0.483983 0.196595
vt 0.142857 1.000000
vt 0.142857 0.500000
vt 0.000000 1.000000
vt 0.000000 0.500000
vt 0.750000 0.490000
vt 0.937640 0.399638
vt 0.983983 0.196595
vt 0.854132 0.033767
vt 0.645868 0.033767
vt 0.516017 0.196595
vt 0.562360 0.399638
vn 0.4339 0.0000 -0.9010
vn 0.9749 0.0000 -0.2225
vn 0.7818 0.0000 0.6235
vn 0.0000 0.0000 1.0000
vn -0.7818 0.0000 0.6235
vn 0.0000 1.0000 0.0000
vn -0.9749 0.0000 -0.2225
vn -0.4339 0.0000 -0.9010
vn 0.0000 -1.0000 0.0000
usemtl Material.001
s off
f 43/64/81 44/65/81 46/66/81 45/67/81
f 45/67/82 46/66/82 48/68/82 47/69/82
f 47/69/83 48/68/83 50/70/83 49/71/83
f 49/71/84 50/70/84 52/72/84 51/73/84
f 51/73/85 52/72/85 54/74/85 53/75/85
f 46/76/86 44/77/86 56/78/86 54/79/86 52/80/86 50/81/86 48/82/86
f 53/75/87 54/74/87 56/83/87 55/84/87
f 55/84/88 56/83/88 44/85/88 43/86/88
f 43/87/89 45/88/89 47/89/89 49/90/89 51/91/89 53/92/89 55/93/89
